<mxfile host="app.diagrams.net" modified="2023-06-24T12:51:21.418Z" agent="Mozilla/5.0 (Windows NT 10.0; Win64; x64) AppleWebKit/537.36 (KHTML, like Gecko) Chrome/113.0.0.0 Safari/537.36" etag="G7QF5aejnNT2d6KdiUZp" version="21.4.0" type="device">
  <diagram name="Page-1" id="9jUYqDGKl-rQ5DNVtu5S">
    <mxGraphModel dx="1434" dy="764" grid="1" gridSize="10" guides="1" tooltips="1" connect="1" arrows="1" fold="1" page="1" pageScale="1.5" pageWidth="2339" pageHeight="3300" math="0" shadow="0">
      <root>
        <mxCell id="0" />
        <mxCell id="1" parent="0" />
        <mxCell id="3G0gbCFOmfLACH73Wg2g-4" style="edgeStyle=orthogonalEdgeStyle;rounded=0;orthogonalLoop=1;jettySize=auto;html=1;exitX=0.5;exitY=1;exitDx=0;exitDy=0;entryX=0.5;entryY=0;entryDx=0;entryDy=0;fontSize=14;" parent="1" source="3G0gbCFOmfLACH73Wg2g-1" target="3G0gbCFOmfLACH73Wg2g-2" edge="1">
          <mxGeometry relative="1" as="geometry" />
        </mxCell>
        <mxCell id="3G0gbCFOmfLACH73Wg2g-1" value="Start" style="ellipse;whiteSpace=wrap;html=1;fontSize=14;" parent="1" vertex="1">
          <mxGeometry x="630" width="100" height="60" as="geometry" />
        </mxCell>
        <mxCell id="3G0gbCFOmfLACH73Wg2g-5" style="edgeStyle=orthogonalEdgeStyle;rounded=0;orthogonalLoop=1;jettySize=auto;html=1;exitX=0.5;exitY=1;exitDx=0;exitDy=0;entryX=0.5;entryY=0;entryDx=0;entryDy=0;fontSize=14;" parent="1" source="3G0gbCFOmfLACH73Wg2g-2" target="3G0gbCFOmfLACH73Wg2g-3" edge="1">
          <mxGeometry relative="1" as="geometry" />
        </mxCell>
        <mxCell id="3G0gbCFOmfLACH73Wg2g-2" value="N" style="shape=parallelogram;perimeter=parallelogramPerimeter;whiteSpace=wrap;html=1;fixedSize=1;fontSize=14;" parent="1" vertex="1">
          <mxGeometry x="640" y="80" width="80" height="30" as="geometry" />
        </mxCell>
        <mxCell id="-CcL1GpngDtn2ipwTqyB-31" style="edgeStyle=orthogonalEdgeStyle;rounded=0;orthogonalLoop=1;jettySize=auto;html=1;exitX=0.5;exitY=1;exitDx=0;exitDy=0;entryX=0.5;entryY=0;entryDx=0;entryDy=0;" edge="1" parent="1" source="3G0gbCFOmfLACH73Wg2g-3" target="3G0gbCFOmfLACH73Wg2g-6">
          <mxGeometry relative="1" as="geometry" />
        </mxCell>
        <mxCell id="3G0gbCFOmfLACH73Wg2g-3" value="numall = {&amp;nbsp; }&lt;br style=&quot;font-size: 14px;&quot;&gt;primes = {&amp;nbsp; }&lt;br style=&quot;font-size: 14px;&quot;&gt;nprimes = 0&lt;br style=&quot;font-size: 14px;&quot;&gt;x = 2&lt;br style=&quot;font-size: 14px;&quot;&gt;i = 0" style="rounded=0;whiteSpace=wrap;html=1;fontSize=14;" parent="1" vertex="1">
          <mxGeometry x="635" y="125" width="95" height="95" as="geometry" />
        </mxCell>
        <mxCell id="lhCDFVgRR21-XCeL078A-51" style="edgeStyle=orthogonalEdgeStyle;rounded=0;orthogonalLoop=1;jettySize=auto;html=1;exitX=0.5;exitY=1;exitDx=0;exitDy=0;entryX=0.5;entryY=0;entryDx=0;entryDy=0;fontSize=14;" parent="1" source="3G0gbCFOmfLACH73Wg2g-6" target="lhCDFVgRR21-XCeL078A-50" edge="1">
          <mxGeometry relative="1" as="geometry" />
        </mxCell>
        <mxCell id="3G0gbCFOmfLACH73Wg2g-6" value="Wypełnij tablicę &lt;i style=&quot;font-size: 14px;&quot;&gt;numall&lt;/i&gt;&amp;nbsp;liczbami całkowitymi od 2 do &lt;i style=&quot;font-size: 14px;&quot;&gt;N&lt;/i&gt;" style="rounded=0;whiteSpace=wrap;html=1;fontSize=14;" parent="1" vertex="1">
          <mxGeometry x="620" y="240" width="130" height="70" as="geometry" />
        </mxCell>
        <mxCell id="3G0gbCFOmfLACH73Wg2g-68" value="Zapis wszystkich liczb z &lt;i style=&quot;font-size: 14px;&quot;&gt;numall&lt;/i&gt;&amp;nbsp;które !=0 do tablicy primes.&lt;br style=&quot;font-size: 14px;&quot;&gt;Z każdym dodaniem zwiększaj &lt;i style=&quot;font-size: 14px;&quot;&gt;nprimes&lt;/i&gt;&amp;nbsp;o 1" style="text;html=1;align=center;verticalAlign=middle;resizable=0;points=[];autosize=1;strokeColor=none;fillColor=none;fontSize=14;" parent="1" vertex="1">
          <mxGeometry x="750" y="330" width="390" height="50" as="geometry" />
        </mxCell>
        <mxCell id="lhCDFVgRR21-XCeL078A-49" style="edgeStyle=orthogonalEdgeStyle;rounded=0;orthogonalLoop=1;jettySize=auto;html=1;exitX=1;exitY=0.25;exitDx=0;exitDy=0;entryX=0;entryY=0;entryDx=0;entryDy=0;fontSize=14;" parent="1" source="lhCDFVgRR21-XCeL078A-2" target="lhCDFVgRR21-XCeL078A-3" edge="1">
          <mxGeometry relative="1" as="geometry" />
        </mxCell>
        <mxCell id="lhCDFVgRR21-XCeL078A-2" value="x = 0&lt;br style=&quot;font-size: 14px;&quot;&gt;i = 0" style="rounded=0;whiteSpace=wrap;html=1;fontSize=14;" parent="1" vertex="1">
          <mxGeometry x="750" y="392.5" width="50" height="45" as="geometry" />
        </mxCell>
        <mxCell id="lhCDFVgRR21-XCeL078A-6" value="nie" style="edgeStyle=orthogonalEdgeStyle;rounded=0;orthogonalLoop=1;jettySize=auto;html=1;exitX=0.5;exitY=1;exitDx=0;exitDy=0;entryX=0.5;entryY=0;entryDx=0;entryDy=0;fontSize=14;" parent="1" source="lhCDFVgRR21-XCeL078A-3" target="lhCDFVgRR21-XCeL078A-5" edge="1">
          <mxGeometry relative="1" as="geometry" />
        </mxCell>
        <mxCell id="lhCDFVgRR21-XCeL078A-11" style="edgeStyle=orthogonalEdgeStyle;rounded=0;orthogonalLoop=1;jettySize=auto;html=1;exitX=1;exitY=0.5;exitDx=0;exitDy=0;entryX=1;entryY=0.5;entryDx=0;entryDy=0;fontSize=14;" parent="1" source="lhCDFVgRR21-XCeL078A-3" target="lhCDFVgRR21-XCeL078A-7" edge="1">
          <mxGeometry relative="1" as="geometry">
            <Array as="points">
              <mxPoint x="1060" y="420" />
              <mxPoint x="1060" y="630" />
            </Array>
          </mxGeometry>
        </mxCell>
        <mxCell id="lhCDFVgRR21-XCeL078A-12" value="tak" style="edgeLabel;html=1;align=center;verticalAlign=middle;resizable=0;points=[];fontSize=14;" parent="lhCDFVgRR21-XCeL078A-11" vertex="1" connectable="0">
          <mxGeometry x="-0.76" relative="1" as="geometry">
            <mxPoint as="offset" />
          </mxGeometry>
        </mxCell>
        <mxCell id="lhCDFVgRR21-XCeL078A-3" value="numall[ i ] == 0" style="rhombus;whiteSpace=wrap;html=1;fontSize=14;" parent="1" vertex="1">
          <mxGeometry x="895" y="382.5" width="125" height="75" as="geometry" />
        </mxCell>
        <mxCell id="lhCDFVgRR21-XCeL078A-8" style="edgeStyle=orthogonalEdgeStyle;rounded=0;orthogonalLoop=1;jettySize=auto;html=1;exitX=0.5;exitY=1;exitDx=0;exitDy=0;entryX=0.5;entryY=0;entryDx=0;entryDy=0;fontSize=14;" parent="1" source="lhCDFVgRR21-XCeL078A-5" target="lhCDFVgRR21-XCeL078A-7" edge="1">
          <mxGeometry relative="1" as="geometry" />
        </mxCell>
        <mxCell id="lhCDFVgRR21-XCeL078A-5" value="nprimes = nprimes + 1&lt;br style=&quot;font-size: 14px;&quot;&gt;&lt;br style=&quot;font-size: 14px;&quot;&gt;primes[ x ] = numall[ i ]&lt;br style=&quot;font-size: 14px;&quot;&gt;&lt;br style=&quot;font-size: 14px;&quot;&gt;x = x +4" style="rounded=0;whiteSpace=wrap;html=1;fontSize=14;" parent="1" vertex="1">
          <mxGeometry x="885" y="490" width="145" height="90" as="geometry" />
        </mxCell>
        <mxCell id="lhCDFVgRR21-XCeL078A-17" style="edgeStyle=orthogonalEdgeStyle;rounded=0;orthogonalLoop=1;jettySize=auto;html=1;exitX=0;exitY=0.5;exitDx=0;exitDy=0;entryX=1;entryY=0.5;entryDx=0;entryDy=0;fontSize=14;" parent="1" source="lhCDFVgRR21-XCeL078A-7" target="lhCDFVgRR21-XCeL078A-16" edge="1">
          <mxGeometry relative="1" as="geometry" />
        </mxCell>
        <mxCell id="lhCDFVgRR21-XCeL078A-7" value="i = i + 4" style="rounded=0;whiteSpace=wrap;html=1;fontSize=14;" parent="1" vertex="1">
          <mxGeometry x="905" y="610" width="80" height="40" as="geometry" />
        </mxCell>
        <mxCell id="lhCDFVgRR21-XCeL078A-20" style="edgeStyle=orthogonalEdgeStyle;rounded=0;orthogonalLoop=1;jettySize=auto;html=1;exitX=0.5;exitY=0;exitDx=0;exitDy=0;entryX=0;entryY=0.5;entryDx=0;entryDy=0;fontSize=14;" parent="1" source="lhCDFVgRR21-XCeL078A-16" target="lhCDFVgRR21-XCeL078A-3" edge="1">
          <mxGeometry relative="1" as="geometry" />
        </mxCell>
        <mxCell id="lhCDFVgRR21-XCeL078A-21" value="tak" style="edgeLabel;html=1;align=center;verticalAlign=middle;resizable=0;points=[];fontSize=14;" parent="lhCDFVgRR21-XCeL078A-20" vertex="1" connectable="0">
          <mxGeometry x="-0.698" relative="1" as="geometry">
            <mxPoint as="offset" />
          </mxGeometry>
        </mxCell>
        <mxCell id="lhCDFVgRR21-XCeL078A-23" value="nie" style="edgeStyle=orthogonalEdgeStyle;rounded=0;orthogonalLoop=1;jettySize=auto;html=1;exitX=0.5;exitY=1;exitDx=0;exitDy=0;entryX=0.5;entryY=0;entryDx=0;entryDy=0;fontSize=14;" parent="1" source="lhCDFVgRR21-XCeL078A-16" target="lhCDFVgRR21-XCeL078A-26" edge="1">
          <mxGeometry relative="1" as="geometry">
            <mxPoint x="825" y="710" as="targetPoint" />
          </mxGeometry>
        </mxCell>
        <mxCell id="lhCDFVgRR21-XCeL078A-16" value="i &amp;lt; N*4" style="rhombus;whiteSpace=wrap;html=1;fontSize=14;" parent="1" vertex="1">
          <mxGeometry x="775" y="595" width="100" height="70" as="geometry" />
        </mxCell>
        <mxCell id="lhCDFVgRR21-XCeL078A-25" value="Wyświetlanie tablicy primes do konsoli" style="text;html=1;align=center;verticalAlign=middle;resizable=0;points=[];autosize=1;strokeColor=none;fillColor=none;fontSize=14;" parent="1" vertex="1">
          <mxGeometry x="850" y="705" width="260" height="30" as="geometry" />
        </mxCell>
        <mxCell id="lhCDFVgRR21-XCeL078A-40" style="edgeStyle=orthogonalEdgeStyle;rounded=0;orthogonalLoop=1;jettySize=auto;html=1;exitX=1;exitY=0.75;exitDx=0;exitDy=0;entryX=0;entryY=0.25;entryDx=0;entryDy=0;fontSize=14;" parent="1" source="lhCDFVgRR21-XCeL078A-26" target="lhCDFVgRR21-XCeL078A-28" edge="1">
          <mxGeometry relative="1" as="geometry" />
        </mxCell>
        <mxCell id="lhCDFVgRR21-XCeL078A-26" value="i = 0" style="rounded=0;whiteSpace=wrap;html=1;fontSize=14;" parent="1" vertex="1">
          <mxGeometry x="800" y="735" width="50" height="30" as="geometry" />
        </mxCell>
        <mxCell id="lhCDFVgRR21-XCeL078A-37" value="nie" style="edgeStyle=orthogonalEdgeStyle;rounded=0;orthogonalLoop=1;jettySize=auto;html=1;exitX=1;exitY=0.5;exitDx=0;exitDy=0;fontSize=14;" parent="1" source="lhCDFVgRR21-XCeL078A-27" target="lhCDFVgRR21-XCeL078A-32" edge="1">
          <mxGeometry relative="1" as="geometry" />
        </mxCell>
        <mxCell id="lhCDFVgRR21-XCeL078A-44" value="tak" style="edgeStyle=orthogonalEdgeStyle;rounded=0;orthogonalLoop=1;jettySize=auto;html=1;exitX=0;exitY=0.5;exitDx=0;exitDy=0;entryX=0;entryY=0.75;entryDx=0;entryDy=0;fontSize=14;" parent="1" source="lhCDFVgRR21-XCeL078A-27" target="lhCDFVgRR21-XCeL078A-28" edge="1">
          <mxGeometry relative="1" as="geometry">
            <mxPoint x="850" y="890" as="targetPoint" />
          </mxGeometry>
        </mxCell>
        <mxCell id="lhCDFVgRR21-XCeL078A-27" value="i &amp;lt; nprimes*4" style="rhombus;whiteSpace=wrap;html=1;fontSize=14;" parent="1" vertex="1">
          <mxGeometry x="887.5" y="885" width="115" height="70" as="geometry" />
        </mxCell>
        <mxCell id="lhCDFVgRR21-XCeL078A-47" style="edgeStyle=orthogonalEdgeStyle;rounded=0;orthogonalLoop=1;jettySize=auto;html=1;exitX=0.5;exitY=1;exitDx=0;exitDy=0;entryX=0.5;entryY=0;entryDx=0;entryDy=0;fontSize=14;" parent="1" source="lhCDFVgRR21-XCeL078A-28" target="lhCDFVgRR21-XCeL078A-46" edge="1">
          <mxGeometry relative="1" as="geometry" />
        </mxCell>
        <mxCell id="lhCDFVgRR21-XCeL078A-28" value="print(primes[ i ])&lt;br style=&quot;font-size: 14px;&quot;&gt;print(\n)" style="rounded=0;whiteSpace=wrap;html=1;fontSize=14;" parent="1" vertex="1">
          <mxGeometry x="895" y="755" width="110" height="60" as="geometry" />
        </mxCell>
        <mxCell id="lhCDFVgRR21-XCeL078A-32" value="Koniec" style="ellipse;whiteSpace=wrap;html=1;fontSize=14;" parent="1" vertex="1">
          <mxGeometry x="1065" y="860" width="100" height="60" as="geometry" />
        </mxCell>
        <mxCell id="lhCDFVgRR21-XCeL078A-48" style="edgeStyle=orthogonalEdgeStyle;rounded=0;orthogonalLoop=1;jettySize=auto;html=1;exitX=0.5;exitY=1;exitDx=0;exitDy=0;fontSize=14;" parent="1" source="lhCDFVgRR21-XCeL078A-46" target="lhCDFVgRR21-XCeL078A-27" edge="1">
          <mxGeometry relative="1" as="geometry" />
        </mxCell>
        <mxCell id="lhCDFVgRR21-XCeL078A-46" value="i = i +4" style="rounded=0;whiteSpace=wrap;html=1;fontSize=14;" parent="1" vertex="1">
          <mxGeometry x="915" y="835" width="60" height="30" as="geometry" />
        </mxCell>
        <mxCell id="-CcL1GpngDtn2ipwTqyB-27" style="edgeStyle=orthogonalEdgeStyle;rounded=0;orthogonalLoop=1;jettySize=auto;html=1;exitX=0;exitY=0.5;exitDx=0;exitDy=0;entryX=0.875;entryY=0.5;entryDx=0;entryDy=0;entryPerimeter=0;fontSize=14;" edge="1" parent="1" source="lhCDFVgRR21-XCeL078A-50" target="-CcL1GpngDtn2ipwTqyB-2">
          <mxGeometry relative="1" as="geometry">
            <Array as="points">
              <mxPoint x="600" y="345" />
              <mxPoint x="600" y="110" />
            </Array>
          </mxGeometry>
        </mxCell>
        <mxCell id="lhCDFVgRR21-XCeL078A-50" value="i = 0" style="rounded=0;whiteSpace=wrap;html=1;fontSize=14;" parent="1" vertex="1">
          <mxGeometry x="662.5" y="330" width="40" height="30" as="geometry" />
        </mxCell>
        <mxCell id="-CcL1GpngDtn2ipwTqyB-7" style="edgeStyle=orthogonalEdgeStyle;rounded=0;orthogonalLoop=1;jettySize=auto;html=1;exitX=0.5;exitY=1;exitDx=0;exitDy=0;entryX=0.5;entryY=0;entryDx=0;entryDy=0;fontSize=14;" edge="1" parent="1" source="-CcL1GpngDtn2ipwTqyB-1" target="-CcL1GpngDtn2ipwTqyB-6">
          <mxGeometry relative="1" as="geometry" />
        </mxCell>
        <mxCell id="-CcL1GpngDtn2ipwTqyB-1" value="x = numall[ i ]&lt;br style=&quot;font-size: 14px;&quot;&gt;i = i + 4" style="rounded=0;whiteSpace=wrap;html=1;fontSize=14;" vertex="1" parent="1">
          <mxGeometry x="420" y="240" width="105" height="45" as="geometry" />
        </mxCell>
        <mxCell id="-CcL1GpngDtn2ipwTqyB-29" style="edgeStyle=orthogonalEdgeStyle;rounded=0;orthogonalLoop=1;jettySize=auto;html=1;exitX=0.13;exitY=0.77;exitDx=0;exitDy=0;exitPerimeter=0;fontSize=14;" edge="1" parent="1" source="-CcL1GpngDtn2ipwTqyB-2" target="-CcL1GpngDtn2ipwTqyB-1">
          <mxGeometry relative="1" as="geometry" />
        </mxCell>
        <mxCell id="-CcL1GpngDtn2ipwTqyB-2" value="nextNumber:" style="ellipse;shape=cloud;whiteSpace=wrap;html=1;fontSize=14;" vertex="1" parent="1">
          <mxGeometry x="450" y="70" width="130" height="80" as="geometry" />
        </mxCell>
        <mxCell id="-CcL1GpngDtn2ipwTqyB-8" value="tak" style="edgeStyle=orthogonalEdgeStyle;rounded=0;orthogonalLoop=1;jettySize=auto;html=1;exitX=0;exitY=0.5;exitDx=0;exitDy=0;entryX=0;entryY=0.5;entryDx=0;entryDy=0;fontSize=14;" edge="1" parent="1" source="-CcL1GpngDtn2ipwTqyB-6" target="-CcL1GpngDtn2ipwTqyB-1">
          <mxGeometry relative="1" as="geometry" />
        </mxCell>
        <mxCell id="-CcL1GpngDtn2ipwTqyB-12" style="edgeStyle=orthogonalEdgeStyle;rounded=0;orthogonalLoop=1;jettySize=auto;html=1;exitX=0.5;exitY=1;exitDx=0;exitDy=0;fontSize=14;" edge="1" parent="1" source="-CcL1GpngDtn2ipwTqyB-6" target="-CcL1GpngDtn2ipwTqyB-11">
          <mxGeometry relative="1" as="geometry" />
        </mxCell>
        <mxCell id="-CcL1GpngDtn2ipwTqyB-6" value="x == 0" style="rhombus;whiteSpace=wrap;html=1;fontSize=14;" vertex="1" parent="1">
          <mxGeometry x="432.5" y="320" width="80" height="80" as="geometry" />
        </mxCell>
        <mxCell id="-CcL1GpngDtn2ipwTqyB-14" style="edgeStyle=orthogonalEdgeStyle;rounded=0;orthogonalLoop=1;jettySize=auto;html=1;exitX=0.5;exitY=1;exitDx=0;exitDy=0;entryX=0.4;entryY=0.1;entryDx=0;entryDy=0;entryPerimeter=0;fontSize=14;" edge="1" parent="1" source="-CcL1GpngDtn2ipwTqyB-11" target="-CcL1GpngDtn2ipwTqyB-13">
          <mxGeometry relative="1" as="geometry" />
        </mxCell>
        <mxCell id="-CcL1GpngDtn2ipwTqyB-11" value="&lt;font style=&quot;font-size: 14px;&quot;&gt;offset = x*4&lt;br style=&quot;font-size: 14px;&quot;&gt;x = offset -8&lt;br style=&quot;font-size: 14px;&quot;&gt;&lt;/font&gt;" style="rounded=0;whiteSpace=wrap;html=1;fontSize=14;" vertex="1" parent="1">
          <mxGeometry x="412.5" y="432.5" width="120" height="60" as="geometry" />
        </mxCell>
        <mxCell id="-CcL1GpngDtn2ipwTqyB-16" style="edgeStyle=orthogonalEdgeStyle;rounded=0;orthogonalLoop=1;jettySize=auto;html=1;exitX=0.55;exitY=0.95;exitDx=0;exitDy=0;exitPerimeter=0;entryX=0.5;entryY=0;entryDx=0;entryDy=0;fontSize=14;" edge="1" parent="1" source="-CcL1GpngDtn2ipwTqyB-13" target="-CcL1GpngDtn2ipwTqyB-15">
          <mxGeometry relative="1" as="geometry" />
        </mxCell>
        <mxCell id="-CcL1GpngDtn2ipwTqyB-13" value="zerowanie:" style="ellipse;shape=cloud;whiteSpace=wrap;html=1;fontSize=14;" vertex="1" parent="1">
          <mxGeometry x="432.5" y="540" width="120" height="80" as="geometry" />
        </mxCell>
        <mxCell id="-CcL1GpngDtn2ipwTqyB-23" style="edgeStyle=orthogonalEdgeStyle;rounded=0;orthogonalLoop=1;jettySize=auto;html=1;exitX=1;exitY=0.5;exitDx=0;exitDy=0;entryX=0.5;entryY=1;entryDx=0;entryDy=0;fontSize=14;" edge="1" parent="1" source="-CcL1GpngDtn2ipwTqyB-15" target="-CcL1GpngDtn2ipwTqyB-18">
          <mxGeometry relative="1" as="geometry" />
        </mxCell>
        <mxCell id="-CcL1GpngDtn2ipwTqyB-15" value="x = x + offset&lt;br style=&quot;font-size: 14px;&quot;&gt;numall[ x ] = 0" style="rounded=0;whiteSpace=wrap;html=1;fontSize=14;" vertex="1" parent="1">
          <mxGeometry x="450" y="645" width="100" height="50" as="geometry" />
        </mxCell>
        <mxCell id="-CcL1GpngDtn2ipwTqyB-22" value="tak" style="edgeStyle=orthogonalEdgeStyle;rounded=0;orthogonalLoop=1;jettySize=auto;html=1;exitX=0;exitY=0.5;exitDx=0;exitDy=0;entryX=0.875;entryY=0.5;entryDx=0;entryDy=0;entryPerimeter=0;fontSize=14;" edge="1" parent="1" source="-CcL1GpngDtn2ipwTqyB-18" target="-CcL1GpngDtn2ipwTqyB-13">
          <mxGeometry relative="1" as="geometry" />
        </mxCell>
        <mxCell id="-CcL1GpngDtn2ipwTqyB-25" value="nie" style="edgeStyle=orthogonalEdgeStyle;rounded=0;orthogonalLoop=1;jettySize=auto;html=1;exitX=0.5;exitY=0;exitDx=0;exitDy=0;entryX=0.5;entryY=1;entryDx=0;entryDy=0;fontSize=14;" edge="1" parent="1" source="-CcL1GpngDtn2ipwTqyB-18" target="-CcL1GpngDtn2ipwTqyB-24">
          <mxGeometry relative="1" as="geometry" />
        </mxCell>
        <mxCell id="-CcL1GpngDtn2ipwTqyB-18" value="x &amp;lt; N*4" style="rhombus;whiteSpace=wrap;html=1;fontSize=14;" vertex="1" parent="1">
          <mxGeometry x="590" y="540" width="80" height="80" as="geometry" />
        </mxCell>
        <mxCell id="-CcL1GpngDtn2ipwTqyB-28" value="tak" style="edgeStyle=orthogonalEdgeStyle;rounded=0;orthogonalLoop=1;jettySize=auto;html=1;exitX=0;exitY=0.5;exitDx=0;exitDy=0;entryX=0.8;entryY=0.8;entryDx=0;entryDy=0;entryPerimeter=0;fontSize=14;" edge="1" parent="1" source="-CcL1GpngDtn2ipwTqyB-24" target="-CcL1GpngDtn2ipwTqyB-2">
          <mxGeometry relative="1" as="geometry" />
        </mxCell>
        <mxCell id="-CcL1GpngDtn2ipwTqyB-30" value="nie" style="edgeStyle=orthogonalEdgeStyle;rounded=0;orthogonalLoop=1;jettySize=auto;html=1;exitX=1;exitY=0.5;exitDx=0;exitDy=0;entryX=0;entryY=0.5;entryDx=0;entryDy=0;fontSize=14;" edge="1" parent="1" source="-CcL1GpngDtn2ipwTqyB-24" target="lhCDFVgRR21-XCeL078A-2">
          <mxGeometry relative="1" as="geometry" />
        </mxCell>
        <mxCell id="-CcL1GpngDtn2ipwTqyB-24" value="i &amp;lt; N*2" style="rhombus;whiteSpace=wrap;html=1;fontSize=14;" vertex="1" parent="1">
          <mxGeometry x="590" y="375" width="80" height="80" as="geometry" />
        </mxCell>
      </root>
    </mxGraphModel>
  </diagram>
</mxfile>
